<?xml version="1.0" standalone="no"?>
<!DOCTYPE svg PUBLIC "-//W3C//DTD SVG 20010904//EN"
 "http://www.w3.org/TR/2001/REC-SVG-20010904/DTD/svg10.dtd">
<svg version="1.0" xmlns="http://www.w3.org/2000/svg"
 width="4307.000000pt" height="2468.000000pt" viewBox="0 0 4307.000000 2468.000000"
 preserveAspectRatio="xMidYMid meet">

<g transform="translate(0.000000,2468.000000) scale(0.100000,-0.100000)"
fill="#ffffff" stroke="none">
<path fill="#000000" d="M0 12340 l0 -12340 21535 0 21535 0 0 12340 0 12340 -21535 0 -21535
0 0 -12340z m19796 8290 c325 -83 582 -373 671 -755 27 -120 25 -361 -4 -470
-86 -316 -295 -520 -629 -612 -89 -24 -116 -27 -269 -27 -197 -1 -246 9 -390
79 -257 124 -434 349 -510 649 -47 185 -42 362 15 539 92 286 328 498 653 587
160 44 316 47 463 10z m7169 -1710 c631 -35 1239 -122 1955 -281 288 -63 440
-104 740 -199 840 -265 1897 -625 2915 -995 1589 -577 2552 -989 2720 -1165
41 -43 23 -53 -78 -45 -263 19 -923 197 -2267 610 -1076 330 -2460 674 -3545
879 -931 176 -1585 197 -2860 91 -99 -8 -387 -31 -640 -50 -253 -19 -662 -50
-910 -69 -1080 -84 -1694 -118 -2160 -120 -355 -1 -463 7 -481 35 -12 20 40
101 103 158 128 118 354 255 688 417 337 164 539 246 895 362 627 205 1296
331 1975 371 207 12 732 12 950 1z m-6884 -856 c469 -89 854 -407 1093 -904
180 -374 269 -808 283 -1375 25 -1068 -259 -2384 -905 -4190 -805 -2247 -1786
-4166 -2801 -5475 -668 -862 -1367 -1476 -2056 -1806 -333 -159 -612 -240
-949 -274 -151 -16 -524 -8 -659 14 -529 86 -925 276 -1161 556 -172 205 -298
463 -437 900 -23 74 -44 137 -46 139 -10 13 -124 -89 -388 -349 -472 -466
-679 -630 -1075 -856 -626 -356 -1087 -467 -1680 -403 -1031 111 -1592 597
-1794 1557 -74 348 -96 630 -103 1295 l-6 529 -36 -7 c-19 -4 -108 -29 -196
-56 -353 -110 -471 -132 -690 -132 -239 0 -402 39 -605 144 -254 132 -490 353
-709 664 -317 448 -511 1000 -598 1705 -22 182 -26 764 -5 930 55 451 168 803
417 1299 829 1658 2734 3646 4045 4224 297 130 522 177 861 177 355 0 685 -56
888 -151 108 -50 177 -103 235 -178 103 -134 149 -283 127 -419 -21 -139 -75
-247 -252 -502 -136 -198 -160 -241 -204 -373 -49 -146 -94 -346 -171 -762
-69 -375 -76 -403 -213 -975 -385 -1606 -689 -3021 -791 -3679 -17 -108 -18
-136 -8 -143 21 -13 176 -9 258 6 91 17 196 29 189 21 -3 -3 -36 -25 -74 -49
-308 -198 -517 -639 -615 -1296 -60 -403 -67 -1085 -14 -1485 37 -290 124
-497 256 -609 136 -117 369 -160 572 -107 372 98 795 491 1243 1157 189 281
382 606 628 1058 350 642 574 1306 1005 2976 45 173 126 484 180 690 79 298
323 1253 486 1900 13 52 44 219 70 370 75 449 118 583 224 702 99 111 240 161
460 162 286 0 588 -72 792 -191 547 -318 652 -1000 343 -2236 -95 -376 -187
-684 -450 -1502 -231 -718 -272 -848 -354 -1125 -240 -808 -362 -1376 -415
-1930 -8 -85 -26 -261 -40 -390 -37 -349 -49 -564 -43 -760 18 -533 155 -791
472 -886 89 -27 256 -25 359 4 715 203 1589 1439 2573 3637 786 1754 1303
3175 1622 4453 166 665 255 1176 313 1792 20 213 17 898 -5 1082 -38 316 -82
518 -187 863 -91 296 -91 354 1 440 141 132 446 185 740 129z m4659 -2174
c610 -55 1183 -272 1660 -628 125 -93 374 -334 462 -447 472 -603 667 -1382
668 -2665 0 -1308 -235 -2320 -702 -3020 -125 -189 -207 -289 -348 -430 -134
-134 -222 -208 -375 -312 -454 -310 -1041 -488 -1666 -505 -499 -14 -940 83
-1394 307 -350 172 -626 375 -895 656 -482 503 -756 1307 -821 2404 -18 310
-2 899 36 1335 152 1712 732 2680 1858 3099 270 101 685 187 1002 209 118 8
409 6 515 -3z m11607 -162 c224 -230 483 -654 590 -968 32 -92 36 -118 37
-205 1 -121 -3 -133 -259 -830 -176 -480 -215 -594 -329 -980 -226 -762 -516
-1502 -938 -2390 -581 -1223 -1250 -2059 -1831 -2288 -455 -179 -837 -97
-1167 250 -260 273 -462 667 -685 1336 -39 119 -74 220 -78 223 -8 8 -82 -100
-237 -351 -486 -784 -838 -1175 -1250 -1389 -330 -171 -662 -190 -982 -56
-613 255 -1051 1197 -1242 2670 -80 618 -110 1125 -110 1885 0 878 45 1551
144 2141 74 444 139 633 255 751 52 52 71 64 129 82 97 30 241 29 402 -4 225
-46 659 -177 894 -272 249 -100 400 -191 525 -317 89 -89 136 -169 155 -262
l12 -56 -39 -40 c-21 -22 -80 -71 -131 -110 -114 -86 -129 -102 -143 -147 -16
-58 -96 -541 -118 -721 -98 -785 -170 -1956 -158 -2560 18 -877 144 -1520 339
-1726 60 -63 100 -84 165 -84 241 0 548 484 953 1500 96 242 137 384 160 560
8 58 13 390 14 1055 2 956 6 1083 41 1545 65 839 199 1378 395 1579 71 73 106
86 230 85 419 -4 1269 -298 1630 -565 89 -65 177 -159 201 -215 51 -115 5
-230 -115 -284 -74 -34 -107 -67 -139 -141 -61 -137 -124 -499 -191 -1109
-138 -1239 -161 -2476 -60 -3125 89 -572 243 -875 444 -875 270 0 650 614
1050 1695 299 806 563 1717 1010 3485 104 410 207 813 230 895 49 182 119 395
129 395 3 0 34 -28 68 -62z m-15085 -6650 l505 -816 -131 -6 c-177 -8 -2048
-37 -2053 -32 -6 6 17 54 96 196 215 389 752 1183 1000 1478 l44 53 17 -28 c9
-16 244 -395 522 -845z m-749 -1590 c4 -211 7 -506 7 -655 l0 -273 270 0 270
0 0 655 0 655 240 0 240 0 0 -1505 0 -1505 -240 0 -240 0 0 640 0 640 -270 0
-270 0 0 -629 c0 -347 -3 -632 -7 -634 -5 -3 -110 -8 -235 -12 l-228 -8 0
1507 0 1506 228 0 229 0 6 -382z m9867 82 c121 -64 114 -53 100 -145 -14 -93
-51 -202 -115 -340 -26 -55 -65 -144 -86 -198 -97 -241 -161 -326 -277 -361
-19 -6 -25 -2 -37 28 -19 45 -19 155 0 243 8 37 35 137 59 222 54 183 80 301
68 313 -4 4 -31 1 -60 -7 -149 -45 -257 -265 -269 -550 -6 -158 5 -225 54
-325 38 -79 77 -120 379 -410 115 -110 136 -135 170 -204 35 -72 39 -87 39
-160 0 -102 -23 -176 -85 -270 -111 -169 -317 -328 -560 -430 -172 -73 -253
-91 -410 -91 -128 0 -138 2 -192 28 -52 26 -59 33 -77 83 -38 99 -26 176 42
277 40 59 46 58 171 -27 107 -73 151 -90 213 -83 80 9 163 87 230 213 l27 51
-19 68 c-29 107 -81 173 -236 300 -74 60 -201 176 -282 257 -82 82 -152 148
-156 148 -5 0 -29 -71 -55 -157 -192 -644 -279 -829 -487 -1029 -207 -199
-408 -247 -618 -149 -221 105 -430 380 -536 707 -33 100 -33 100 -49 76 -9
-14 -52 -101 -95 -194 -110 -237 -157 -312 -270 -425 -77 -77 -112 -104 -175
-135 -75 -37 -86 -39 -170 -39 -82 0 -96 3 -145 30 -70 38 -115 92 -162 190
-84 178 -119 359 -126 652 -6 255 4 392 63 861 24 194 44 364 44 377 0 24 0
24 -45 10 -25 -7 -62 -25 -81 -40 -76 -58 -174 -224 -238 -404 -47 -132 -196
-617 -282 -921 -97 -341 -110 -383 -166 -542 l-42 -118 -38 0 c-51 0 -152 35
-202 70 -56 38 -88 74 -131 145 -80 134 -115 321 -115 616 0 216 7 312 51 704
35 312 47 505 32 505 -5 0 -28 -13 -49 -28 -199 -145 -362 -536 -624 -1497
-45 -165 -97 -348 -116 -407 l-35 -108 -47 0 c-63 0 -168 30 -227 64 -107 63
-178 175 -210 331 -20 95 -22 333 -5 505 39 397 51 600 35 600 -3 0 -69 -55
-147 -122 -202 -176 -214 -196 -288 -508 -43 -180 -78 -278 -160 -445 -87
-180 -150 -274 -247 -366 -126 -120 -236 -171 -373 -172 -141 -1 -253 49 -377
166 -210 199 -326 503 -340 887 -24 657 275 1392 637 1567 44 21 70 27 130 27
99 1 166 -30 247 -117 l59 -63 49 23 c65 29 150 31 204 3 150 -76 236 -367
266 -902 l7 -117 41 20 c56 28 73 45 112 105 18 27 58 77 89 110 52 54 57 58
70 41 12 -16 15 -13 35 32 15 35 30 120 51 283 35 276 52 357 100 452 l35 71
71 3 c145 6 353 -56 486 -144 64 -43 118 -98 118 -121 0 -5 -26 -48 -58 -94
-31 -46 -63 -97 -70 -113 -40 -90 -166 -666 -150 -682 3 -2 31 64 63 148 178
473 296 693 454 849 203 200 475 226 644 61 137 -133 172 -337 123 -722 -28
-223 -31 -269 -17 -254 5 5 46 90 91 189 187 413 317 633 459 776 115 114 191
153 300 154 67 0 85 -4 145 -34 87 -43 183 -136 219 -213 45 -95 60 -178 60
-333 -1 -161 -14 -269 -83 -645 -66 -357 -80 -473 -80 -638 0 -137 18 -260 41
-288 14 -17 68 -18 123 -2 58 17 152 114 199 205 57 109 108 254 203 570 133
447 189 605 280 785 139 277 297 433 534 527 103 40 184 54 282 49 97 -6 157
-29 218 -84 177 -160 192 -499 40 -888 -57 -145 -120 -246 -209 -336 -85 -86
-166 -143 -362 -255 -74 -43 -138 -82 -142 -89 -4 -6 -5 -44 -1 -85 19 -225
126 -408 260 -447 124 -36 240 27 392 210 188 228 279 455 367 913 83 436 128
594 212 738 141 242 389 409 628 422 108 6 182 -7 265 -49 l61 -30 26 23 c14
13 38 43 55 67 39 56 72 56 178 2z"/>
<path fill="#000000" d="M9064 14934 c-487 -348 -1489 -1505 -2211 -2549 -352 -511 -621
-1035 -742 -1447 -84 -289 -114 -507 -114 -828 0 -323 27 -532 94 -733 178
-534 607 -860 1171 -892 117 -6 293 6 308 21 11 13 51 279 115 779 97 755 131
935 395 2125 283 1275 365 1556 883 3035 190 545 190 545 184 545 -3 0 -40
-25 -83 -56z"/>
<path fill="#000000" d="M24395 14276 c-287 -57 -481 -222 -635 -541 -141 -291 -225 -668
-276 -1225 -21 -240 -31 -995 -15 -1223 64 -916 295 -1542 630 -1712 112 -56
259 -71 390 -39 98 24 219 84 280 140 299 270 525 958 618 1884 22 221 26 974
5 1165 -31 291 -70 512 -127 720 -103 375 -274 651 -479 770 -107 62 -263 86
-391 61z"/>
<path fill="#000000" d="M28355 7187 c-67 -32 -107 -67 -159 -141 -90 -126 -160 -303 -209
-526 -45 -201 -78 -480 -58 -480 18 0 122 55 176 94 86 62 214 197 281 297
122 183 182 352 191 534 5 99 -7 218 -23 234 -3 3 -38 7 -77 9 -59 2 -81 -1
-122 -21z"/>
<path fill="#000000" d="M22974 6945 c-26 -26 -63 -82 -83 -124 -35 -74 -36 -79 -36 -191 0
-128 13 -169 80 -247 30 -35 137 -103 163 -103 15 0 50 114 63 205 25 181 -28
403 -115 484 l-26 25 -46 -49z"/>
<path fill="#000000" d="M22618 6715 c-129 -174 -220 -447 -235 -703 -24 -436 179 -822 383
-726 84 40 172 171 228 337 14 43 44 162 67 266 l42 189 -34 30 c-19 17 -71
53 -117 79 -173 101 -199 120 -228 169 -41 69 -55 133 -62 279 l-7 130 -37
-50z"/>
</g>
</svg>
